<?xml version="1.0" encoding="UTF-8"?>
<svg id="Calque_2" data-name="Calque 2" xmlns="http://www.w3.org/2000/svg" viewBox="0 0 31.86 32.3">
  <defs>
    <style>
      .cls-1 {
        fill: #161616;
      }

      .cls-2 {
        fill: #eae0c6;
      }
    </style>
  </defs>
  <g id="Calque_1-2" data-name="Calque 1">
    <g>
      <path class="cls-1" d="m1.7,23.95h12.4s3.51-.4,3.64-4.45c.13-4.04-3.91-4.58-3.91-4.58-1.9-.04-3.8-.08-5.69-.12-.75-.03-1.35-.61-1.41-1.3-.07-.78.58-1.52,1.44-1.55h13.35v12h3.24v-12h2.56v-2.97h-2.29V3.19s15.37,13.28,0,26.02c0,0-12.61,9.71-23.33-5.26Z"/>
      <path class="cls-2" d="m.69,20.82c-1.7-5.67-.22-11.82,3.87-16C8.94.33,15.63-1.18,21.64.96v7.64l-14.02.18s-4.09.18-3.96,5.03,5.21,4.13,5.21,4.13h4.4s1.12-.27,1.35,1.35-1.35,1.53-1.35,1.53H.69Z"/>
    </g>
  </g>
</svg>