<?xml version="1.0" standalone="no"?>
<!DOCTYPE svg PUBLIC "-//W3C//DTD SVG 20010904//EN"
 "http://www.w3.org/TR/2001/REC-SVG-20010904/DTD/svg10.dtd">
<svg version="1.0" xmlns="http://www.w3.org/2000/svg"
 width="577.000000pt" height="433.000000pt" viewBox="0 0 577.000000 433.000000"
 preserveAspectRatio="xMidYMid meet">

<g transform="translate(0.000000,433.000000) scale(0.100000,-0.100000)"
fill="#FFFFFF" stroke="none">
<path d="M2640 4120 c-910 -126 -1604 -807 -1735 -1701 -20 -141 -20 -428 1
-568 98 -666 507 -1222 1115 -1515 116 -56 356 -145 362 -135 1 2 1 100 -1
217 l-3 212 -158 0 c-175 0 -225 10 -303 59 -64 41 -99 93 -143 213 -57 157
-90 214 -161 285 -54 53 -63 66 -55 82 19 34 58 35 127 2 64 -30 117 -78 254
-228 50 -55 61 -62 115 -73 41 -9 100 -11 185 -6 201 11 190 6 233 89 43 84
105 163 165 209 23 18 42 35 42 38 0 3 -48 14 -107 24 -118 20 -309 78 -394
121 -141 71 -274 185 -350 300 -79 121 -129 322 -115 469 14 149 73 298 167
423 l51 67 -21 111 c-40 208 -37 344 9 435 33 64 39 66 146 48 140 -24 264
-86 366 -184 l49 -47 107 26 c146 36 241 47 390 47 147 0 226 -10 374 -47
l107 -26 68 62 c94 87 218 147 345 169 109 18 115 16 149 -50 44 -85 44 -279
0 -462 l-19 -79 50 -66 c59 -78 120 -200 145 -291 27 -99 24 -300 -5 -405 -90
-313 -355 -521 -774 -605 -55 -11 -113 -20 -129 -20 -40 0 -36 -11 17 -51 61
-45 128 -136 175 -234 65 -138 69 -168 69 -494 l0 -291 43 16 c99 38 296 139
386 197 368 243 647 596 791 1002 128 365 149 786 56 1154 -67 264 -180 501
-343 719 -71 95 -234 265 -329 343 -259 212 -571 357 -909 420 -124 24 -487
35 -605 19z"/>
</g>
</svg>
